<?xml version="1.0" encoding="utf-8"?>
<!-- Generator: Adobe Illustrator 21.0.2, SVG Export Plug-In . SVG Version: 6.00 Build 0)  -->
<svg version="1.1" id="Layer_1" xmlns="http://www.w3.org/2000/svg" xmlns:xlink="http://www.w3.org/1999/xlink" x="0px" y="0px"
	 viewBox="0 0 112.2 21.9" style="enable-background:new 0 0 112.2 21.9;" xml:space="preserve">
<style type="text/css">
	.st0{enable-background:new    ;}
	.st1{fill:#FFFFFF;}
	.st2{fill:#231815;}
</style>
<g class="st0">
	<path class="st1" d="M4.2,16.8c-1.6,0-2.9-0.3-3.9-1.4L1.6,14c0.7,0.7,1.6,0.9,2.6,0.9c1.2,0,1.9-0.5,1.9-1.3
		c0-0.4-0.1-0.7-0.3-0.9c-0.2-0.2-0.5-0.3-1-0.4l-1.3-0.2C2.6,12,2,11.7,1.5,11.2C1,10.7,0.7,10,0.7,9.1c0-1.9,1.4-3.3,3.8-3.3
		C6,5.8,7,6.2,8,7.1L6.6,8.4C5.9,7.8,5.1,7.7,4.4,7.7C3.3,7.7,2.7,8.3,2.7,9c0,0.3,0.1,0.6,0.3,0.8c0.2,0.2,0.6,0.4,1,0.4l1.3,0.2
		c1,0.1,1.6,0.4,2.1,0.8c0.6,0.5,0.8,1.3,0.8,2.3C8.2,15.6,6.5,16.8,4.2,16.8z"/>
	<path class="st1" d="M16,16.7v-4.5h-3.7v4.5h-2.1V5.9h2.1v4.4H16V5.9h2.1v10.8H16z"/>
	<path class="st1" d="M20.6,16.7V5.9h2.1v10.8H20.6z"/>
	<path class="st1" d="M30.9,16.7l-2.1-4.3h-1.5v4.3h-2.1V5.9h4.2c2.2,0,3.5,1.5,3.5,3.3c0,1.5-0.9,2.5-2,2.8l2.4,4.7H30.9z
		 M29.3,7.8h-2v2.8h2c0.9,0,1.5-0.6,1.5-1.4C30.8,8.4,30.2,7.8,29.3,7.8z"/>
	<path class="st1" d="M35.1,16.7V5.9h2.1v8.9h4.9v1.9H35.1z"/>
	<path class="st1" d="M43.8,16.7V5.9h7.1v1.9h-5v2.5h4.3v1.9h-4.3v2.6h5v1.9H43.8z"/>
	<path class="st1" d="M57.1,12.3v4.4H55v-4.4l-3.2-6.4H54l2,4.3l2-4.3h2.3L57.1,12.3z"/>
	<path class="st1" d="M68.4,15.7c-0.7,0.7-1.7,1-2.8,1h-3.9V5.9h3.9c1.1,0,2.1,0.3,2.8,1c1.2,1.2,1.1,2.7,1.1,4.3
		C69.5,12.9,69.6,14.5,68.4,15.7z M66.9,8.5c-0.4-0.4-0.8-0.7-1.6-0.7h-1.6v7h1.6c0.7,0,1.2-0.2,1.6-0.7c0.4-0.5,0.5-1.3,0.5-2.9
		C67.4,9.6,67.3,9,66.9,8.5z"/>
	<path class="st1" d="M71.6,16.7V5.9h7.1v1.9h-5v2.5H78v1.9h-4.3v2.6h5v1.9H71.6z"/>
	<path class="st1" d="M83.7,16.8c-1.6,0-2.9-0.3-3.9-1.4l1.4-1.4c0.7,0.7,1.6,0.9,2.6,0.9c1.2,0,1.9-0.5,1.9-1.3
		c0-0.4-0.1-0.7-0.3-0.9c-0.2-0.2-0.5-0.3-1-0.4l-1.3-0.2c-0.9-0.1-1.6-0.4-2.1-0.9c-0.5-0.5-0.8-1.2-0.8-2.1c0-1.9,1.4-3.3,3.8-3.3
		c1.5,0,2.6,0.4,3.5,1.3l-1.3,1.3c-0.7-0.7-1.5-0.7-2.2-0.7c-1.1,0-1.7,0.6-1.7,1.4c0,0.3,0.1,0.6,0.3,0.8c0.2,0.2,0.6,0.4,1,0.4
		l1.3,0.2c1,0.1,1.6,0.4,2.1,0.8c0.6,0.5,0.8,1.3,0.8,2.3C87.7,15.6,86,16.8,83.7,16.8z"/>
	<path class="st1" d="M89.7,16.7V5.9h2.1v10.8H89.7z"/>
	<path class="st1" d="M101,15.6c-0.8,0.8-1.8,1.2-3,1.2c-1.2,0-2.1-0.4-2.9-1.2c-0.5-0.5-0.8-1-0.9-1.6C94,13.4,94,12.5,94,11.3
		c0-1.2,0.1-2.1,0.2-2.7C94.3,8,94.6,7.5,95,7c0.8-0.8,1.8-1.2,2.9-1.2c2.5,0,3.8,1.6,4.1,3.5h-2.1c-0.3-1-0.9-1.6-1.9-1.6
		c-0.6,0-1,0.2-1.3,0.6c-0.4,0.5-0.5,0.9-0.5,3c0,2.1,0.1,2.5,0.5,3c0.3,0.4,0.8,0.6,1.3,0.6c0.6,0,1.1-0.2,1.5-0.6
		c0.3-0.4,0.5-0.8,0.5-1.4v-0.4h-2v-1.8h4.1v1.6C102,13.9,101.7,14.8,101,15.6z"/>
	<path class="st1" d="M110.4,16.7l-4.3-6.6v6.6H104V5.9h1.9l4.3,6.6V5.9h2.1v10.8H110.4z"/>
</g>
<text transform="matrix(1 0 0 1 -286.3335 35.0931)" class="st2" style="font-family:'DINPro-Bold'; font-size:22.5709px;">SHIRLEYDESIGN</text>
</svg>
